<?xml version="1.0" encoding="UTF-8"?>
<svg width="474px" height="83px" viewBox="0 0 474 83" version="1.1" xmlns="http://www.w3.org/2000/svg" xmlns:xlink="http://www.w3.org/1999/xlink">
    <defs>
        <polygon id="path-1" points="43.955 0.545 43.955 56.555 0.6481 56.555 0.6481 0.545 43.955 0.545"></polygon>
    </defs>
    <g id="Page-1" stroke="none" stroke-width="1" fill="none" fill-rule="evenodd">
        <g>
            <path d="M266.5042,13.1572 C266.5042,20.4232 260.6152,26.3142 253.3472,26.3142 C246.0792,26.3142 240.1912,20.4232 240.1912,13.1572 C240.1912,5.8902 246.0792,0.0002 253.3472,0.0002 C260.6152,0.0002 266.5042,5.8902 266.5042,13.1572" id="Fill-1" fill="#DA1F37"></path>
            <path d="M230.9241,13.1572 C230.9241,20.4232 225.0311,26.3142 217.7671,26.3142 C210.5001,26.3142 204.6111,20.4232 204.6111,13.1572 C204.6111,5.8902 210.5001,0.0002 217.7671,0.0002 C225.0311,0.0002 230.9241,5.8902 230.9241,13.1572" id="Fill-3" fill="#DA1F37"></path>
            <path d="M266.5042,48.5269 C266.5042,55.7939 260.6152,61.6859 253.3472,61.6859 C246.0792,61.6859 240.1912,55.7939 240.1912,48.5269 C240.1912,41.2589 246.0792,35.3709 253.3472,35.3709 C260.6152,35.3709 266.5042,41.2589 266.5042,48.5269" id="Fill-5" fill="#DA1F37"></path>
            <path d="M230.9241,48.5269 C230.9241,55.7939 225.0311,61.6859 217.7671,61.6859 C210.5001,61.6859 204.6111,55.7939 204.6111,48.5269 C204.6111,41.2589 210.5001,35.3709 217.7671,35.3709 C225.0311,35.3709 230.9241,41.2589 230.9241,48.5269" id="Fill-7" fill="#DA1F37"></path>
            <path d="M298.1536,59.4448 C283.9376,59.4448 276.4996,49.5768 276.4996,39.8278 L276.4996,21.8568 C276.4996,12.1088 283.9376,2.2398 298.1536,2.2398 C306.3316,2.2398 312.9236,5.4658 316.7196,11.3248 C318.6126,14.2468 317.7776,18.1528 314.8536,20.0468 C311.9316,21.9408 308.0266,21.1058 306.1326,18.1818 C304.3506,15.4318 300.8086,14.8548 298.1536,14.8548 C289.7646,14.8548 289.1136,20.2148 289.1136,21.8568 L289.1136,39.8278 C289.1136,41.4708 289.7646,46.8318 298.1536,46.8318 C300.8086,46.8318 304.3486,46.2528 306.1326,43.5028 C308.0266,40.5778 311.9316,39.7448 314.8536,41.6368 C317.7776,43.5328 318.6126,47.4368 316.7196,50.3598 C312.9236,56.2198 306.3316,59.4448 298.1536,59.4448" id="Fill-9" fill="#424149"></path>
            <g id="Group-13" transform="translate(430.000000, 1.694800)">
                <mask id="mask-2" fill="white">
                    <use xlink:href="#path-1"></use>
                </mask>
                <g id="Clip-12"></g>
                <path d="M22.3021,0.545 C17.8361,0.545 14.0411,1.519 10.9351,3.156 C9.8481,2.272 8.4631,1.741 6.9541,1.741 C3.4721,1.741 0.6481,4.565 0.6481,8.047 L0.6481,50.247 C0.6481,53.732 3.4721,56.555 6.9541,56.555 C10.4381,56.555 13.2631,53.732 13.2631,50.247 L13.2631,20.162 C13.2631,18.519 13.9131,13.158 22.3021,13.158 C30.6891,13.158 31.3411,18.519 31.3411,20.162 L31.3411,50.247 C31.3411,53.732 34.1641,56.555 37.6481,56.555 C41.1321,56.555 43.9551,53.732 43.9551,50.247 L43.9551,20.162 C43.9551,10.413 36.5191,0.545 22.3021,0.545" id="Fill-11" fill="#424149" mask="url(#mask-2)"></path>
            </g>
            <path d="M399.3392,46.396 C396.1682,47.235 393.1552,46.831 391.2772,45.317 C390.4212,44.625 389.4172,43.378 389.5092,41.359 C389.5762,39.876 390.1312,38.753 391.2552,37.825 C392.4572,36.831 395.7202,34.978 403.2942,34.978 C404.5932,34.978 406.0232,35.035 407.5902,35.157 L407.5872,41.276 C407.4862,43.118 404.3492,45.073 399.3392,46.396 M397.5562,2.254 C391.9462,2.254 386.7432,4.218 382.0872,8.09 C379.4102,10.318 379.0442,14.294 381.2732,16.972 C383.4992,19.651 387.4772,20.015 390.1552,17.787 C392.5492,15.796 394.8992,14.868 397.5562,14.868 C404.9222,14.868 407.5972,19.03 407.5972,21.825 L407.5972,22.514 C396.7552,21.81 388.5722,23.679 383.2222,28.1 C379.3182,31.323 377.1362,35.714 376.9062,40.794 C376.6562,46.399 379.0082,51.626 383.3602,55.135 C386.8802,57.975 391.3382,59.448 396.1282,59.448 C398.2272,59.448 400.3872,59.166 402.5612,58.591 C405.0082,57.945 407.0762,56.932 408.8192,55.684 C409.9672,57.237 411.8062,58.248 413.8842,58.25 L413.8892,58.25 C417.3692,58.25 420.1922,55.427 420.1952,51.946 L420.2112,21.828 C420.2112,12.339 412.2712,2.254 397.5562,2.254" id="Fill-14" fill="#424149"></path>
            <path d="M110.6121,24.6782 L128.5821,24.6782 L128.5821,21.8572 C128.5821,20.2142 127.9341,14.8532 119.5971,14.8532 C111.2601,14.8532 110.6121,20.2142 110.6121,21.8572 L110.6121,24.6782 Z M120.6531,59.4452 C105.9381,59.4452 97.9981,49.3602 97.9981,39.8702 L97.9981,21.8572 C97.9981,16.8122 99.8751,12.0762 103.2811,8.5232 C106.0291,5.6562 111.0911,2.2402 119.5971,2.2402 C128.1041,2.2402 133.1651,5.6562 135.9131,8.5232 C139.3201,12.0762 141.1961,16.8122 141.1961,21.8572 L141.1961,30.9852 C141.1961,34.4672 138.3731,37.2922 134.8891,37.2922 L110.6121,37.2922 L110.6121,39.8702 C110.6121,42.6692 113.2861,46.8312 120.6531,46.8312 C123.5481,46.8312 127.7781,46.0152 129.3491,45.3372 C132.5491,43.9622 136.2591,45.4382 137.6361,48.6372 C139.0131,51.8372 137.5361,55.5482 134.3361,56.9242 C130.9971,58.3622 125.1151,59.4452 120.6531,59.4452 L120.6531,59.4452 Z" id="Fill-16" fill="#424149"></path>
            <path d="M356.6448,39.8277 C356.6448,41.4707 355.9948,46.8317 347.6058,46.8317 C339.2178,46.8317 338.5668,41.4707 338.5668,39.8277 L338.5668,21.8567 C338.5668,20.2147 339.2178,14.8547 347.6058,14.8547 C355.9948,14.8547 356.6448,20.2147 356.6448,21.8567 L356.6448,39.8277 Z M347.6058,2.2407 C343.1408,2.2407 339.3458,3.2157 336.2388,4.8517 C335.1538,3.9677 333.7688,3.4357 332.2578,3.4357 C328.7758,3.4357 325.9528,6.2597 325.9528,9.7427 L325.9528,70.2817 C325.9528,73.7657 328.7758,76.5887 332.2578,76.5887 C335.7438,76.5887 338.5668,73.7657 338.5668,70.2817 L338.5668,57.8777 C341.1858,58.8737 344.1988,59.4447 347.6058,59.4447 C361.8228,59.4447 369.2588,49.5777 369.2588,39.8277 L369.2588,21.8567 C369.2588,12.1087 361.8228,2.2407 347.6058,2.2407 L347.6058,2.2407 Z" id="Fill-18" fill="#424149"></path>
            <path d="M179.9781,39.8277 C179.9781,41.4707 179.3281,46.8317 170.9391,46.8317 C162.5511,46.8317 161.9001,41.4707 161.9001,39.8277 L161.9001,21.8567 C161.9001,20.2147 162.5511,14.8547 170.9391,14.8547 C179.3281,14.8547 179.9781,20.2147 179.9781,21.8567 L179.9781,39.8277 Z M170.9391,2.2407 C166.4741,2.2407 162.6791,3.2157 159.5721,4.8517 C158.4871,3.9677 157.1021,3.4357 155.5911,3.4357 C152.1091,3.4357 149.2861,6.2597 149.2861,9.7427 L149.2861,70.2817 C149.2861,73.7657 152.1091,76.5887 155.5911,76.5887 C159.0771,76.5887 161.9001,73.7657 161.9001,70.2817 L161.9001,57.8777 C164.5191,58.8737 167.5321,59.4447 170.9391,59.4447 C185.1561,59.4447 192.5921,49.5777 192.5921,39.8277 L192.5921,21.8567 C192.5921,12.1087 185.1561,2.2407 170.9391,2.2407 L170.9391,2.2407 Z" id="Fill-20" fill="#424149"></path>
            <path d="M22.4032,46.8316 C13.7242,46.8316 13.0512,41.4716 13.0512,39.8276 L13.0512,21.8566 C13.0512,20.2146 13.7242,14.8546 22.4032,14.8546 C31.0812,14.8546 31.7552,20.2146 31.7552,21.8566 L31.7552,39.8276 C31.7552,41.4716 31.0812,46.8316 22.4032,46.8316 M38.2822,3.4356 C36.7192,3.4356 35.2862,3.9676 34.1642,4.8526 C30.9492,3.2156 27.0232,2.2406 22.4032,2.2406 C7.6942,2.2406 0.0002,12.1086 0.0002,21.8566 L0.0002,39.8276 C0.0002,49.5776 7.6942,59.4446 22.4032,59.4446 C25.9282,59.4446 29.0452,58.8736 31.7552,57.8776 L31.7552,60.5426 L31.7552,63.1206 C31.7552,65.9196 28.9882,70.0816 21.3662,70.0816 C18.3712,70.0816 13.9952,69.2656 12.3692,68.5876 C9.0582,67.2126 5.2192,68.6876 3.7952,71.8876 C2.3702,75.0876 3.8982,78.7986 7.2092,80.1746 C10.6642,81.6116 16.7502,82.6946 21.3662,82.6946 C35.0392,82.6946 43.0542,74.5616 44.5472,66.0306 C44.7122,65.4746 44.8062,64.8896 44.8062,64.2816 L44.8062,63.1206 L44.8062,51.1066 L44.8062,9.7426 C44.8062,6.2596 41.8852,3.4356 38.2822,3.4356" id="Fill-22" fill="#424149"></path>
            <path d="M85.9393,4.3406 C82.3143,4.0696 76.4003,4.9636 72.1823,6.4186 C70.7853,6.8996 69.4913,7.4576 68.2873,8.0766 C67.9963,4.8636 65.2993,2.3456 62.0113,2.3456 C58.5253,2.3456 55.7023,5.1696 55.7023,8.6526 L55.7023,8.8456 L55.7023,52.9216 L55.7023,53.1156 C55.7023,56.5986 58.5253,59.4216 62.0083,59.4216 C65.4933,59.4216 68.3163,56.5986 68.3163,53.1156 L68.3163,52.9216 L68.3163,25.7536 C69.2683,22.6916 71.6023,19.9596 76.2933,18.3426 C79.0303,17.3986 83.2953,16.7916 85.0023,16.9206 C88.4753,17.1766 91.5023,14.5726 91.7603,11.0996 C92.0193,7.6246 89.4133,4.5986 85.9393,4.3406" id="Fill-24" fill="#424149"></path>
        </g>
    </g>
</svg>
